<svg width="175" height="42" viewBox="0 0 175 42" fill="none" xmlns="http://www.w3.org/2000/svg">
<g clip-path="url(#clip0_114_26898)">
<path d="M73.2841 23.4715H70.3779L66.9792 18.7049H60.5338V23.4715H58V10.5H68.4878C69.8656 10.5 70.9611 10.8723 71.7755 11.6159C72.5899 12.36 73.0023 13.3556 73.0023 14.6126C73.0023 16.7642 71.9266 18.0817 69.7744 18.5545L73.2841 23.4715ZM68.1154 16.4232C69.6437 16.4232 70.418 15.8301 70.418 14.6533C70.418 13.3963 69.6036 12.7729 67.9748 12.7729H60.5437V16.4226L68.1154 16.4232Z" fill="#17273D"/>
<path d="M91.475 23.4716H77.5078V10.5H90.9923V12.7823H80.0416V15.5879H87.6534V17.8603H80.0416V21.1986H91.475V23.4716Z" fill="#17273D"/>
<path d="M110.529 10.5L103.36 23.4716H100.443L93.2734 10.5H96.0686L101.901 21.2689L107.733 10.5H110.529Z" fill="#17273D"/>
<path d="M127.279 23.4716H113.312V10.5H126.796V12.7823H115.847V15.5879H123.458V17.8603H115.847V21.1986H127.279V23.4716Z" fill="#17273D"/>
<path d="M146.46 23.4716H143.554L140.156 18.7049H133.711V23.4716H131.176V10.5H141.665C143.042 10.5 144.138 10.8723 144.952 11.6159C145.767 12.36 146.179 13.3556 146.179 14.6126C146.179 16.7642 145.103 18.0816 142.951 18.5545L146.46 23.4716ZM141.292 16.4232C142.82 16.4232 143.594 15.8301 143.594 14.6533C143.594 13.3962 142.78 12.773 141.151 12.773H133.72V16.4226L141.292 16.4232Z" fill="#17273D"/>
<path d="M153.213 23.4716H150.68V10.5H153.213V23.4716Z" fill="#17273D"/>
<path d="M172.24 23.4716H158.273V10.5H171.757V12.7823H160.807V15.5879H168.418V17.8603H160.807V21.1986H172.239L172.24 23.4716Z" fill="#17273D"/>
<path d="M41.2912 1.44961C39.7215 0.837034 38.0142 0.5 36.23 0.5H13.9651C12.5639 0.5 11.2087 0.706574 9.938 1.08917C4.18812 2.81987 0 8.14867 0 14.4651V18.0942V21.7233C0 28.0322 4.18812 33.369 9.938 35.0992C11.2167 35.4818 12.5644 35.6884 13.9651 35.6884H28.5044L22.0809 29.2649L22.0119 29.1959L21.1237 28.3082L20.3506 27.5346C19.9906 27.1746 19.761 26.723 19.6694 26.2555C19.6084 25.9419 19.6084 25.6199 19.6694 25.3063C19.7305 24.9923 19.853 24.6862 20.029 24.4178C20.121 24.2802 20.2281 24.1497 20.3431 24.0272L20.3811 23.9888C20.7487 23.6292 21.1927 23.3996 21.6598 23.3076C21.6979 23.2997 21.7438 23.2997 21.7823 23.2921H22.4869H24.9598H24.9753H28.5203C31.3762 23.2846 33.696 20.9648 33.696 18.1013C33.696 18.0934 33.696 18.0934 33.696 18.0858C33.696 18.0783 33.696 18.0708 33.696 18.0708C33.696 15.2069 31.3837 12.8875 28.5203 12.8795H24.9753H24.9598H16.2775H16.1855H13.8347C13.3216 12.8795 12.8395 12.7265 12.4489 12.4585C12.1884 12.2824 11.9589 12.0525 11.7828 11.7848C11.6068 11.5168 11.4768 11.2258 11.4078 10.8967C11.3772 10.7357 11.3543 10.5676 11.3543 10.3991V10.3456C11.3543 9.83254 11.5073 9.35795 11.7753 8.95988C11.9514 8.69185 12.1809 8.4698 12.4414 8.28624C12.7095 8.1102 13.0076 7.98016 13.3296 7.91158C13.4901 7.88106 13.6586 7.85764 13.8271 7.85764H24.9673H28.5654C32.294 7.85764 35.5484 9.87143 37.3092 12.8653C37.7608 13.6234 38.1129 14.4501 38.3504 15.3232C38.3504 15.3307 38.3579 15.3537 38.3579 15.3612C38.4344 15.6297 38.488 15.9052 38.5494 16.1808C38.5954 16.4179 38.6339 16.6554 38.6569 16.9004C38.6644 16.946 38.6644 16.9999 38.6719 17.0459C38.7104 17.3829 38.733 17.7275 38.733 18.08C38.733 18.4241 38.71 18.7687 38.6719 19.1136C38.6644 19.1592 38.6644 19.2127 38.6569 19.2591C38.6339 19.5042 38.5958 19.7413 38.5494 19.9792C38.4959 20.2543 38.4349 20.5303 38.3579 20.7983C38.3504 20.8134 38.3504 20.8213 38.3504 20.8368C38.1129 21.7095 37.7608 22.5286 37.3092 23.2942C35.5405 26.2881 32.294 28.3019 28.5654 28.3019H28.2134L35.594 35.6825L40.1267 40.2152L41.2979 41.3864V34.7334C46.5117 32.7041 50.2022 27.6433 50.2022 21.7174V18.0879V14.4589C50.1955 8.53922 46.505 3.47844 41.2912 1.44961Z" fill="#EE4840"/>
</g>
<defs>
<clipPath id="clip0_114_26898">
<rect width="175" height="41" fill="white" transform="translate(0 0.5)"/>
</clipPath>
</defs>
</svg>
