<svg width="52" height="52" viewBox="0 0 52 52" fill="none" xmlns="http://www.w3.org/2000/svg">
<rect x="0.5" y="0.5" width="51" height="51" rx="25.5" stroke="#003874"/>
<path d="M17.25 16.375C15.317 16.375 13.75 17.942 13.75 19.875V20.75H38.25V19.875C38.25 17.942 36.683 16.375 34.75 16.375H17.25Z" fill="#003874"/>
<path fill-rule="evenodd" clip-rule="evenodd" d="M38.25 23.375H13.75V32.125C13.75 34.058 15.317 35.625 17.25 35.625H34.75C36.683 35.625 38.25 34.058 38.25 32.125V23.375ZM17.25 27.75C17.25 27.2668 17.6418 26.875 18.125 26.875H25.125C25.6082 26.875 26 27.2668 26 27.75C26 28.2332 25.6082 28.625 25.125 28.625H18.125C17.6418 28.625 17.25 28.2332 17.25 27.75ZM18.125 30.375C17.6418 30.375 17.25 30.7668 17.25 31.25C17.25 31.7332 17.6418 32.125 18.125 32.125H21.625C22.1082 32.125 22.5 31.7332 22.5 31.25C22.5 30.7668 22.1082 30.375 21.625 30.375H18.125Z" fill="#003874"/>
</svg>
