<svg width="72" height="72" viewBox="0 0 72 72" fill="none" xmlns="http://www.w3.org/2000/svg">
<circle cx="36" cy="36" r="36" fill="#F8B73E"/>
<path d="M48.6663 26.028H44.1783V30.584C44.1783 32.08 43.725 33.4627 42.8183 34.732C41.9116 36.0013 40.6763 36.976 39.1123 37.656L36.8683 34.188C38.7497 33.644 39.6903 32.5333 39.6903 30.856V26.028H32.9583V35.582C32.9583 36.262 33.253 36.874 33.8423 37.418C34.4543 37.962 35.395 38.6307 36.6643 39.424C37.843 40.172 38.7837 40.818 39.4863 41.362C40.189 41.906 40.7897 42.5747 41.2883 43.368C41.8097 44.1387 42.0703 45.034 42.0703 46.054C42.0703 47.006 41.8663 47.958 41.4583 48.91H36.8683C37.299 47.9807 37.5143 47.074 37.5143 46.19C37.5143 45.51 37.3443 44.9093 37.0043 44.388C36.6643 43.844 36.2337 43.3907 35.7123 43.028C35.2137 42.6427 34.5223 42.178 33.6383 41.634C32.5277 40.954 31.6323 40.342 30.9523 39.798C30.2723 39.254 29.683 38.5513 29.1843 37.69C28.7083 36.8287 28.4703 35.7973 28.4703 34.596V26.028H23.9823V23.308H48.6663V26.028Z" fill="white"/>
</svg>
