<svg width="72" height="72" viewBox="0 0 72 72" fill="none" xmlns="http://www.w3.org/2000/svg">
<circle cx="36" cy="36" r="36" fill="#00D1A9"/>
<path d="M38.796 53.242L35.6 50.284L41.346 44.878V30.53H39.34L39.748 26.892H51.274V30.53H46.412V46L38.796 53.242ZM31.35 46.408C29.786 46.408 28.4147 46.0907 27.236 45.456C26.08 44.8213 25.1733 43.8807 24.516 42.634C23.8587 41.3873 23.53 39.846 23.53 38.01C23.53 35.9247 23.9153 34.134 24.686 32.638C25.4793 31.1193 26.6127 29.9067 28.086 29C28.9247 28.4787 29.8427 28.0707 30.84 27.776C31.8373 27.4587 33.016 27.232 34.376 27.096C35.7587 26.96 37.402 26.892 39.306 26.892H40.292L40.428 30.53H37.232C36.144 30.53 35.2147 30.5867 34.444 30.7C33.696 30.7907 33.05 30.938 32.506 31.142C31.962 31.346 31.452 31.6067 30.976 31.924C30.0467 32.5587 29.3213 33.3973 28.8 34.44C28.2787 35.4827 28.018 36.7973 28.018 38.384C28.018 39.4493 28.1427 40.322 28.392 41.002C28.6413 41.6593 28.9927 42.1467 29.446 42.464C29.922 42.7587 30.4887 42.906 31.146 42.906C31.6673 42.906 32.098 42.804 32.438 42.6C32.8007 42.396 33.0727 42.1013 33.254 41.716C33.458 41.3307 33.56 40.866 33.56 40.322C33.56 39.4833 33.322 38.826 32.846 38.35C32.3927 37.874 31.758 37.636 30.942 37.636C29.99 37.636 29.14 37.9193 28.392 38.486C27.644 39.03 26.964 39.6307 26.352 40.288L25.604 37.024C26.4427 36.2307 27.3947 35.562 28.46 35.018C29.5253 34.474 30.772 34.202 32.2 34.202C34.036 34.202 35.5093 34.712 36.62 35.732C37.7533 36.752 38.32 38.2027 38.32 40.084C38.32 41.3987 38.0593 42.532 37.538 43.484C37.0167 44.4133 36.2347 45.1387 35.192 45.66C34.172 46.1587 32.8913 46.408 31.35 46.408Z" fill="white"/>
</svg>
